<svg xmlns="http://www.w3.org/2000/svg" width="960" height="720" fill="none" viewBox="0 0 960 720"><rect width="960" height="720" fill="#F7F4ED" rx="48"/><g opacity=".55"><circle cx="480" cy="360" r="120" stroke="#C9D2C2" stroke-width="1.5"/><circle cx="480" cy="360" r="185" stroke="#D6DDD0" stroke-width="1.5"/><circle cx="480" cy="360" r="255" stroke="#E0E6DB" stroke-width="1.5"/><circle cx="480" cy="360" r="330" stroke="#E7ECE3" stroke-width="1.5"/></g><circle cx="480" cy="360" r="68" fill="#A9B89D"/><circle cx="480" cy="360" r="44" fill="#F5F7F0" fill-opacity=".35"/><circle cx="600" cy="360" r="14" fill="#3F4D3C"/><circle cx="665" cy="290" r="18" fill="#6C7E64"/><circle cx="290" cy="455" r="24" fill="#C1CBB6"/><circle cx="755" cy="438" r="32" fill="#D7DED2"/><circle cx="225" cy="210" r="22" fill="#87977E"/><circle cx="365" cy="130" r="11" fill="#52614F"/><circle cx="405" cy="602" r="16" fill="#A7B59D"/><g opacity=".65"><circle cx="145" cy="140" r="3" fill="#6C7E64"/><circle cx="194" cy="560" r="4" fill="#A9B89D"/><circle cx="792" cy="188" r="3" fill="#6C7E64"/><circle cx="840" cy="320" r="4" fill="#A9B89D"/><circle cx="720" cy="580" r="3" fill="#6C7E64"/><circle cx="540" cy="110" r="4" fill="#A9B89D"/></g></svg>